Coordinates
version=1
nRows=13
nColumns=22
inDegrees=yes

Units are S.I. units (second, meters, Newtons, ...)
If the header above contains a line with 'inDegrees', this indicates whether rotational values are in degrees (yes) or radians (no).

endheader
time	pelvis_tilt	pelvis_list	pelvis_rotation	pelvis_tx	pelvis_ty	pelvis_tz	hip_flexion_r	hip_adduction_r	hip_rotation_r	knee_angle_r	ankle_angle_r	subtalar_angle_r	hip_flexion_l	hip_adduction_l	hip_rotation_l	knee_angle_l	ankle_angle_l	subtalar_angle_l	lumbar_extension	lumbar_bending	lumbar_rotation
      1.99000000	      0.10141223	     -1.86315284	     41.62220043	      0.67502017	      0.94362156	      0.70972995	     29.58685892	      1.09015177	      4.96772315	    -54.14291679	      9.43556941	      2.96159593	      2.76888644	      9.67954527	     12.35941771	    -17.53128805	      9.99806872	    -16.51684122	     -7.66856686	      1.17818672	     -8.82603585
      2.00000000	      0.17306610	     -1.81218194	     42.57287792	      0.67994207	      0.94290041	      0.70257277	     30.04510034	      1.36373214	      5.52101730	    -52.13948589	      9.30062495	      3.22872572	      1.90755155	      9.73076265	     13.22784471	    -17.29546159	     10.28467442	    -16.69433181	     -7.74207069	      1.19359742	     -9.17224187
      2.01000000	      0.22444978	     -1.77357705	     43.48195089	      0.68484125	      0.94204856	      0.69540094	     30.44621858	      1.60458930	      6.08452391	    -49.99814550	      9.13377641	      3.55223263	      1.09408730	      9.77041076	     14.02536408	    -17.09791244	     10.58665640	    -16.87206820	     -7.78590932	      1.20844185	     -9.49224312
      2.02000000	      0.26788019	     -1.73983153	     44.34930244	      0.68972236	      0.94109553	      0.68817609	     30.76848335	      1.80359871	      6.63512342	    -47.71932271	      8.96787231	      3.93504337	      0.30809003	      9.79994069	     14.74814039	    -16.93213003	     10.88758604	    -17.05504589	     -7.81541959	      1.22969847	     -9.78678763
      2.03000000	      0.30974017	     -1.68289684	     45.14792198	      0.69463977	      0.94008629	      0.68091061	     30.98535277	      1.95842735	      7.19651174	    -45.31239004	      8.86697084	      4.54220966	     -0.49232361	      9.83519244	     15.37617147	    -16.76868560	     11.13592502	    -17.27048585	     -7.85837674	      1.23260378	    -10.01308232
      2.04000000	      0.32696983	     -1.66393409	     45.94760388	      0.69948373	      0.93891081	      0.67355373	     31.16881457	      2.04954148	      7.64768109	    -42.79509084	      8.74687805	      4.99968698	     -1.20799873	      9.86121724	     15.96951738	    -16.68069988	     11.43243821	    -17.46258971	     -7.84720598	      1.26048962	    -10.27047760
      2.05000000	      0.34568434	     -1.64730194	     46.72800940	      0.70432451	      0.93765360	      0.66612183	     31.26758183	      2.08878860	      8.01186557	    -40.17756980	      8.66773694	      5.44978159	     -1.90609031	      9.87969194	     16.51306731	    -16.63160372	     11.72666567	    -17.65464280	     -7.83213591	      1.29480903	    -10.51545750
      2.06000000	      0.35715059	     -1.63173616	     47.47766039	      0.70920006	      0.93630205	      0.65859834	     31.29823533	      2.08301555	      8.30231332	    -37.49791978	      8.64183209	      5.96287357	     -2.59964351	      9.89396933	     16.98727384	    -16.58623412	     12.01806894	    -17.85666589	     -7.80199292	      1.33081237	    -10.75861234
      2.07000000	      0.36740443	     -1.62108585	     48.21944076	      0.71406293	      0.93486476	      0.65100937	     31.26422024	      2.03806756	      8.50417876	    -34.77938892	      8.65869908	      6.47145733	     -3.26006167	      9.90516454	     17.43031949	    -16.60313187	     12.30475943	    -18.04753687	     -7.76738569	      1.37210925	    -10.99281965
      2.08000000	      0.37652415	     -1.62618379	     48.96538215	      0.71891812	      0.93333811	      0.64334861	     31.18302972	      1.96494638	      8.61130074	    -32.05986666	      8.68757747	      6.93486862	     -3.88574973	      9.89932824	     17.83994674	    -16.66811656	     12.61996407	    -18.22136027	     -7.71611126	      1.42869265	    -11.25737322
      2.09000000	      0.38104659	     -1.62817694	     49.66073479	      0.72389485	      0.93176716	      0.63564945	     31.04995829	      1.89789581	      8.73934177	    -29.38848164	      8.80127466	      7.59920293	     -4.53193899	      9.88148761	     18.21716691	    -16.70075991	     12.88087954	    -18.37859010	     -7.65775420	      1.46973895	    -11.46573064
      2.10000000	      0.38124549	     -1.65243917	     50.36482059	      0.72884925	      0.93012992	      0.62791067	     30.89767842	      1.82198012	      8.82173062	    -26.80040899	      8.90565081	      8.19837999	     -5.12161559	      9.84680953	     18.60005460	    -16.80571551	     13.16042171	    -18.48434390	     -7.58139482	      1.52384140	    -11.68993802
      2.11000000	      0.37689491	     -1.69067681	     51.05833513	      0.73383884	      0.92846564	      0.62013175	     30.72945560	      1.74976797	      8.91086884	    -24.34514375	      9.01334492	      8.76966111	     -5.68544078	      9.79174450	     18.97752439	    -16.93400004	     13.43651697	    -18.53428695	     -7.49007378	      1.58179117	    -11.93056353
